<?xml version="1.0" encoding="iso-8859-1"?>
<!-- Generator: Adobe Illustrator 19.1.0, SVG Export Plug-In . SVG Version: 6.00 Build 0)  -->
<svg version="1.1" id="Layer_1" xmlns="http://www.w3.org/2000/svg" xmlns:xlink="http://www.w3.org/1999/xlink" x="0px" y="0px"
	 viewBox="0 0 58 63.833" style="enable-background:new 0 0 58 63.833;" xml:space="preserve">
<path style="fill:#26B99A;stroke:#2C3E50;stroke-miterlimit:10;" d="M50.583,24.833c0-12.104-9.812-21.916-21.916-21.916
	S6.75,12.729,6.75,24.833c0,8.521,4.866,15.9,11.968,19.526l9.949,17.232l9.949-17.232C45.717,40.734,50.583,33.354,50.583,24.833z"
	/>
<g>
	<path style="fill:#2C3E50;" d="M22.248,24.245c0,2.039-1.619,3.588-3.788,3.588c-2.158,0-3.777-1.539-3.777-3.588
		c0-2.039,1.619-3.548,3.777-3.548C20.629,20.697,22.248,22.216,22.248,24.245z M16.501,24.255c0,1.179,0.91,2.089,1.979,2.089
		c1.079,0,1.938-0.91,1.938-2.089s-0.859-2.069-1.938-2.069C17.4,22.187,16.501,23.076,16.501,24.255z"/>
	<path style="fill:#2C3E50;" d="M26.24,20.757c1.789,0,2.818,0.879,2.818,2.438c0,1.639-1.029,2.589-2.818,2.589h-1.27v1.969h-1.779
		v-6.996H26.24z M24.97,24.385h1.18c0.779,0,1.229-0.39,1.229-1.129c0-0.729-0.45-1.099-1.229-1.099h-1.18V24.385z"/>
	<path style="fill:#2C3E50;" d="M31.77,22.157v1.389h3.338v1.399H31.77v1.409h3.808v1.399h-5.587v-6.996h5.478v1.399H31.77z"/>
	<path style="fill:#2C3E50;" d="M41.619,27.753l-3.218-4.308v4.308h-1.67v-6.996H38.3l3.229,4.317v-4.317h1.659v6.996H41.619z"/>
</g>
</svg>
