<?xml version="1.0" encoding="iso-8859-1"?>
<!-- Generator: Adobe Illustrator 19.1.0, SVG Export Plug-In . SVG Version: 6.00 Build 0)  -->
<svg version="1.1" id="Layer_1" xmlns="http://www.w3.org/2000/svg" xmlns:xlink="http://www.w3.org/1999/xlink" x="0px" y="0px"
	 viewBox="0 0 58 63.833" style="enable-background:new 0 0 58 63.833;" xml:space="preserve">
<path style="fill:#E64C3C;stroke:#2C3E50;stroke-miterlimit:10;" d="M51.333,25.413c0-12.104-9.812-21.916-21.916-21.916
	S7.5,13.308,7.5,25.413c0,8.521,4.866,15.9,11.968,19.526l9.949,17.232l9.949-17.232C46.467,41.313,51.333,33.933,51.333,25.413z"/>
<g>
	<path style="fill:#FFFFFF;" d="M17.399,22.297l-0.928,1.098c-0.414-0.504-1.026-0.819-1.584-0.819c-1,0-1.756,0.792-1.756,1.828
		c0,1.053,0.756,1.854,1.756,1.854c0.531,0,1.144-0.288,1.584-0.738l0.937,0.991c-0.675,0.693-1.675,1.152-2.602,1.152
		c-1.899,0-3.313-1.396-3.313-3.241c0-1.818,1.449-3.187,3.367-3.187C15.797,21.234,16.769,21.648,17.399,22.297z"/>
	<path style="fill:#FFFFFF;" d="M22.411,26.249v1.341h-4.276v-6.302h1.603v4.96H22.411z"/>
	<path style="fill:#FFFFFF;" d="M29.576,24.43c0,1.837-1.459,3.232-3.412,3.232c-1.944,0-3.403-1.387-3.403-3.232
		c0-1.836,1.459-3.196,3.403-3.196C28.117,21.234,29.576,22.603,29.576,24.43z M24.399,24.439c0,1.062,0.819,1.881,1.782,1.881
		c0.973,0,1.747-0.819,1.747-1.881c0-1.062-0.774-1.864-1.747-1.864C25.21,22.576,24.399,23.377,24.399,24.439z"/>
	<path style="fill:#FFFFFF;" d="M35.327,21.918l-0.604,1.251c-0.666-0.387-1.504-0.657-2.017-0.657
		c-0.414,0-0.693,0.153-0.693,0.459c0,1.089,3.331,0.468,3.331,2.746c0,1.26-1.116,1.927-2.521,1.927
		c-1.054,0-2.134-0.396-2.881-1.008l0.621-1.233c0.648,0.567,1.62,0.945,2.277,0.945c0.504,0,0.819-0.189,0.819-0.549
		c0-1.116-3.331-0.45-3.331-2.683c0-1.162,0.999-1.9,2.512-1.9C33.751,21.216,34.679,21.496,35.327,21.918z"/>
	<path style="fill:#FFFFFF;" d="M37.818,22.549V23.8h3.007v1.26h-3.007v1.27h3.431v1.26h-5.033v-6.302h4.934v1.26H37.818z"/>
	<path style="fill:#FFFFFF;" d="M44.992,21.289c1.98,0,3.35,1.278,3.35,3.151c0,1.863-1.387,3.151-3.412,3.151h-2.647v-6.302H44.992
		z M43.885,26.312h1.144c0.981,0,1.684-0.756,1.684-1.864c0-1.116-0.738-1.881-1.756-1.881h-1.071V26.312z"/>
</g>
</svg>
