<?xml version="1.0" encoding="iso-8859-1"?>
<!-- Generator: Adobe Illustrator 19.1.0, SVG Export Plug-In . SVG Version: 6.00 Build 0)  -->
<svg version="1.1" id="Layer_1" xmlns="http://www.w3.org/2000/svg" xmlns:xlink="http://www.w3.org/1999/xlink" x="0px" y="0px"
	 viewBox="0 0 58 63.833" style="enable-background:new 0 0 58 63.833;" xml:space="preserve">
<path style="fill:#ECF0F1;stroke:#2C3E50;stroke-miterlimit:10;" d="M50.916,25.413c0-12.104-9.812-21.916-21.916-21.916
	S7.084,13.308,7.084,25.413c0,8.521,4.866,15.9,11.968,19.526L29,62.171l9.949-17.232C46.05,41.313,50.916,33.933,50.916,25.413z"/>
<g>
	<path style="fill:#2C3E50;" d="M24.573,23.889c0.038-2.717,1.653-4.312,4.332-4.312c2.526,0,4.084,1.178,4.084,3.306
		c0,2.887-2.906,3.229-2.906,5.509h-2.451c0-2.944,2.337-3.096,2.337-4.977c0-0.855-0.513-1.235-1.368-1.235
		c-0.949,0-1.481,0.551-1.5,1.729L24.573,23.889z M30.405,31.487c0,0.95-0.664,1.596-1.596,1.596c-0.931,0-1.576-0.646-1.576-1.596
		c0-0.931,0.646-1.577,1.576-1.577C29.741,29.911,30.405,30.557,30.405,31.487z"/>
</g>
</svg>
