<?xml version="1.0" encoding="iso-8859-1"?>
<!-- Generator: Adobe Illustrator 19.1.0, SVG Export Plug-In . SVG Version: 6.00 Build 0)  -->
<svg version="1.1" id="Layer_1" xmlns="http://www.w3.org/2000/svg" xmlns:xlink="http://www.w3.org/1999/xlink" x="0px" y="0px"
	 viewBox="0 0 101.333 84" style="enable-background:new 0 0 101.333 84;" xml:space="preserve">
<g>
	<g>
		<circle style="fill:none;stroke:#26B99A;stroke-width:3;stroke-miterlimit:10;" cx="52.137" cy="27.937" r="24"/>
		<g>
			<g>
				<path style="fill:#26B99A;" d="M52.137,28.937c-0.553,0-1-0.448-1-1V10.604c0-0.552,0.447-1,1-1s1,0.448,1,1v17.333
					C53.137,28.49,52.69,28.937,52.137,28.937z"/>
			</g>
			<g>
				<path style="fill:#26B99A;" d="M42.637,38.437c-0.256,0-0.512-0.098-0.707-0.293c-0.391-0.391-0.391-1.023,0-1.414l9.5-9.5
					c0.391-0.391,1.023-0.391,1.414,0s0.391,1.023,0,1.414l-9.5,9.5C43.149,38.34,42.893,38.437,42.637,38.437z"/>
			</g>
		</g>
	</g>
	<g>
		<path style="fill:#2C3E50;" d="M85.096,29.257L85.096,29.257c-1.512,0-2.749-1.237-2.749-2.749V9.436
			c0-1.512,1.237-2.749,2.749-2.749l0,0c1.512,0,2.749,1.237,2.749,2.749v17.072C87.845,28.02,86.608,29.257,85.096,29.257z"/>
		<path style="fill:#2C3E50;" d="M86.845,49.187h-1c-0.55,0-1-0.45-1-1V27.329c0-0.55,0.45-1,1-1h1c0.55,0,1,0.45,1,1v20.859
			C87.845,48.737,87.395,49.187,86.845,49.187z"/>
	</g>
	<g>
		<path style="fill:#2C3E50;" d="M14.727,48.437h-1c-0.55,0-1-0.45-1-1V22.916c0-0.55,0.45-1,1-1h1c0.55,0,1,0.45,1,1v24.521
			C15.727,47.987,15.277,48.437,14.727,48.437z"/>
		<path style="fill:#2C3E50;" d="M17.282,7.461v12.466c0,0.448-0.367,0.815-0.815,0.815h-0.543c-0.448,0-0.815-0.367-0.815-0.815
			V7.438h-1.765v12.49c0,0.448-0.367,0.815-0.815,0.815h-0.543c-0.448,0-0.815-0.367-0.815-0.815V7.461
			C9.997,7.58,9.068,8.568,9.068,9.774V20.85c0,1.285,1.051,2.336,2.336,2.336h5.646c1.285,0,2.336-1.051,2.336-2.336V9.774
			C19.386,8.568,18.457,7.58,17.282,7.461z"/>
	</g>
	<g>
		<path style="fill:#26B99A;" d="M29.924,67.855v7.818h-3.955v-6.714c0-1.472-0.828-2.369-2.139-2.369
			c-1.495,0.046-2.415,1.265-2.415,2.943v6.14h-3.978v-6.714c0-1.472-0.806-2.369-2.116-2.369c-1.518,0.046-2.46,1.265-2.46,2.943
			v6.14H8.906V63.279h3.955v2.047c0.851-1.472,2.276-2.208,4.093-2.23c2.023,0,3.519,1.058,4.14,2.805
			c0.805-1.839,2.322-2.782,4.368-2.805C28.175,63.095,29.924,64.958,29.924,67.855z"/>
		<path style="fill:#26B99A;" d="M44.829,75.674H40.85v-2.046c-0.851,1.472-2.23,2.208-4.023,2.208c-2.69,0-4.438-1.84-4.438-4.737
			v-7.818h3.979v6.692c0,1.472,0.805,2.368,2.069,2.368c1.518-0.023,2.414-1.265,2.414-2.943v-6.117h3.979V75.674z"/>
		<path style="fill:#26B99A;" d="M60.653,67.855v7.818h-3.956v-6.714c0-1.449-0.851-2.346-2.184-2.346
			c-1.449,0-2.369,1.035-2.53,2.506v6.554h-3.978V63.279h3.978v2.024c0.874-1.449,2.3-2.185,4.14-2.208
			C58.859,63.095,60.653,64.958,60.653,67.855z"/>
		<path style="fill:#2C3E50;" d="M66.611,73.926c0,1.15-0.805,1.932-1.932,1.932c-1.127,0-1.908-0.782-1.908-1.932
			c0-1.127,0.781-1.909,1.908-1.909C65.806,72.017,66.611,72.799,66.611,73.926z"/>
		<path style="fill:#26B99A;" d="M79.996,65.924l-2.852,1.725c-0.575-0.805-1.426-1.288-2.507-1.288
			c-1.541,0-2.599,1.265-2.599,3.127c0,1.909,1.058,3.15,2.599,3.15c1.127,0,2.001-0.46,2.529-1.403l2.897,1.702
			c-1.012,1.816-3.012,2.875-5.634,2.875c-3.817,0-6.393-2.53-6.393-6.301c0-3.817,2.599-6.37,6.438-6.37
			C76.937,63.141,78.915,64.153,79.996,65.924z"/>
		<path style="fill:#26B99A;" d="M94.784,67.855v7.818h-3.979v-6.714c0-1.449-0.827-2.346-2.185-2.346
			c-1.563,0-2.529,1.242-2.529,2.943v6.117h-3.979V58.611h3.979v6.715c0.874-1.472,2.322-2.208,4.162-2.23
			C92.99,63.095,94.784,64.958,94.784,67.855z"/>
	</g>
</g>
</svg>
