<?xml version="1.0" encoding="iso-8859-1"?>
<!-- Generator: Adobe Illustrator 19.1.0, SVG Export Plug-In . SVG Version: 6.00 Build 0)  -->
<svg version="1.1" id="Layer_1" xmlns="http://www.w3.org/2000/svg" xmlns:xlink="http://www.w3.org/1999/xlink" x="0px" y="0px"
	 viewBox="0 0 158.667 38.667" style="enable-background:new 0 0 158.667 38.667;" xml:space="preserve">
<g>
	<g>
		<g>
			<path style="fill:#26B99A;" d="M31.236,34.282c-8.701,0-15.78-7.079-15.78-15.78s7.079-15.78,15.78-15.78
				s15.78,7.079,15.78,15.78S39.937,34.282,31.236,34.282z M31.236,4.578c-7.677,0-13.924,6.246-13.924,13.924
				s6.246,13.924,13.924,13.924S45.16,26.18,45.16,18.502S38.913,4.578,31.236,4.578z"/>
		</g>
		<g>
			<g>
				<path style="fill:#26B99A;" d="M31.236,19.121c-0.342,0-0.619-0.277-0.619-0.619V7.776c0-0.342,0.277-0.619,0.619-0.619
					c0.342,0,0.619,0.277,0.619,0.619v10.726C31.855,18.844,31.578,19.121,31.236,19.121z"/>
			</g>
			<g>
				<path style="fill:#26B99A;" d="M25.357,25c-0.158,0-0.317-0.06-0.438-0.181c-0.242-0.242-0.242-0.633,0-0.875l5.879-5.879
					c0.242-0.242,0.633-0.242,0.875,0c0.242,0.242,0.242,0.633,0,0.875l-5.879,5.879C25.674,24.939,25.516,25,25.357,25z"/>
			</g>
		</g>
	</g>
	<g>
		<path style="fill:#2C3E50;" d="M51.632,19.319L51.632,19.319c-0.936,0-1.701-0.765-1.701-1.701V7.053
			c0-0.936,0.765-1.701,1.701-1.701h0c0.936,0,1.701,0.765,1.701,1.701v10.565C53.333,18.553,52.568,19.319,51.632,19.319z"/>
		<path style="fill:#2C3E50;" d="M52.405,31.652L52.405,31.652c-0.511,0-0.928-0.418-0.928-0.928V18.435
			c0-0.511,0.418-0.928,0.928-0.928h0c0.511,0,0.928,0.418,0.928,0.928v12.289C53.333,31.234,52.916,31.652,52.405,31.652z"/>
	</g>
	<g>
		<path style="fill:#2C3E50;" d="M7.776,31.188L7.776,31.188c-0.511,0-0.928-0.418-0.928-0.928V15.704
			c0-0.511,0.418-0.928,0.928-0.928h0c0.511,0,0.928,0.418,0.928,0.928V30.26C8.704,30.77,8.287,31.188,7.776,31.188z"/>
		<path style="fill:#2C3E50;" d="M9.667,5.831v7.715c0,0.277-0.227,0.504-0.504,0.504H8.826c-0.277,0-0.504-0.227-0.504-0.504V5.816
			H7.23v7.729c0,0.277-0.227,0.504-0.504,0.504H6.39c-0.277,0-0.504-0.227-0.504-0.504V5.831C5.158,5.904,4.584,6.516,4.584,7.262
			v6.854c0,0.795,0.651,1.446,1.446,1.446h3.494c0.795,0,1.446-0.651,1.446-1.446V7.262C10.969,6.516,10.394,5.904,9.667,5.831z"/>
	</g>
	<g>
		<g>
			<path style="fill:#26B99A;" d="M87.934,18.9v7.818h-3.955v-6.714c0-1.472-0.828-2.369-2.139-2.369
				c-1.495,0.046-2.415,1.265-2.415,2.943v6.14h-3.978v-6.714c0-1.472-0.806-2.369-2.116-2.369c-1.518,0.046-2.46,1.265-2.46,2.943
				v6.14h-3.955V14.323h3.955v2.047c0.851-1.472,2.276-2.208,4.093-2.23c2.023,0,3.519,1.058,4.14,2.805
				c0.805-1.839,2.322-2.782,4.368-2.805C86.186,14.14,87.934,16.002,87.934,18.9z"/>
			<path style="fill:#26B99A;" d="M102.839,26.718h-3.979v-2.046c-0.851,1.472-2.23,2.208-4.023,2.208
				c-2.69,0-4.438-1.84-4.438-4.737v-7.818h3.979v6.692c0,1.472,0.805,2.368,2.069,2.368c1.518-0.023,2.414-1.265,2.414-2.943
				v-6.117h3.979V26.718z"/>
			<path style="fill:#26B99A;" d="M118.663,18.9v7.818h-3.956v-6.714c0-1.449-0.851-2.346-2.184-2.346
				c-1.449,0-2.369,1.035-2.53,2.506v6.554h-3.978V14.323h3.978v2.024c0.874-1.449,2.3-2.185,4.14-2.208
				C116.869,14.14,118.663,16.002,118.663,18.9z"/>
			<path style="fill:#2C3E50;" d="M124.621,24.97c0,1.15-0.805,1.932-1.932,1.932s-1.908-0.782-1.908-1.932
				c0-1.127,0.781-1.909,1.908-1.909S124.621,23.843,124.621,24.97z"/>
			<path style="fill:#26B99A;" d="M138.006,16.968l-2.852,1.725c-0.575-0.805-1.426-1.288-2.507-1.288
				c-1.541,0-2.599,1.265-2.599,3.127c0,1.909,1.058,3.15,2.599,3.15c1.127,0,2.001-0.46,2.529-1.403l2.897,1.702
				c-1.012,1.816-3.012,2.875-5.634,2.875c-3.817,0-6.393-2.53-6.393-6.301c0-3.817,2.599-6.37,6.438-6.37
				C134.948,14.186,136.925,15.197,138.006,16.968z"/>
			<path style="fill:#26B99A;" d="M152.794,18.9v7.818h-3.979v-6.714c0-1.449-0.827-2.346-2.185-2.346
				c-1.563,0-2.529,1.242-2.529,2.943v6.117h-3.979V9.655h3.979v6.715c0.874-1.472,2.322-2.208,4.162-2.23
				C151,14.14,152.794,16.002,152.794,18.9z"/>
		</g>
	</g>
</g>
</svg>
